<?xml version="1.0" encoding="UTF-8" standalone="no"?>
<!-- Created with Inkscape (http://www.inkscape.org/) -->

<svg
   width="420mm"
   height="280mm"
   viewBox="0 0 420 280"
   version="1.1"
   id="svg630"
   xmlns:inkscape="http://www.inkscape.org/namespaces/inkscape"
   xmlns:sodipodi="http://sodipodi.sourceforge.net/DTD/sodipodi-0.dtd"
   xmlns="http://www.w3.org/2000/svg"
   xmlns:svg="http://www.w3.org/2000/svg">
  <sodipodi:namedview
     id="namedview632"
     pagecolor="#ffffff"
     bordercolor="#000000"
     borderopacity="0.25"
     inkscape:showpageshadow="2"
     inkscape:pageopacity="0.0"
     inkscape:pagecheckerboard="0"
     inkscape:deskcolor="#d1d1d1"
     inkscape:document-units="mm"
     showgrid="false"
     showguides="true">
    <sodipodi:guide
       position="719.23668,161.59396"
       orientation="0,-1"
       id="guide8317"
       inkscape:locked="false" />
    <sodipodi:guide
       position="647.86355,78.044321"
       orientation="1,0"
       id="guide8319"
       inkscape:locked="false" />
    <sodipodi:guide
       position="719.23668,152.42259"
       orientation="0,-1"
       id="guide8321"
       inkscape:locked="false" />
  </sodipodi:namedview>
  <defs
     id="defs627" />
  <g
     inkscape:label="Camada 1"
     inkscape:groupmode="layer"
     id="layer1">
    <rect
       style="fill:#000080;stroke:#000000;stroke-width:0.264583"
       id="rect1156"
       width="420"
       height="280"
       x="0"
       y="0" />
    <path
       id="rect998"
       style="fill:#ffd700;stroke:#000000;stroke-width:0.264583"
       d="M 107.9403,40.397017 V 120.66137 L 177.40016,80.396643 H 419.86791 V 40.397017 Z m 0,80.264353 v 40.00014 h 311.92761 v -40.00014 z m 0,40.00014 0.79995,80.26435 h 311.92761 v -39.99962 h -243.2677 z"
       sodipodi:nodetypes="ccccccccccccccccc" />
    <path
       id="path3465"
       style="fill:#ffffff;fill-opacity:1;stroke:none;stroke-width:0.264583"
       inkscape:transform-center-x="4.5054266e-06"
       inkscape:transform-center-y="-1.7721126e-06"
       d="M 7.9352188,140.66144 60.087929,121.14471 37.010802,80.396651 87.688751,93.543887 107.20548,41.391176 l 19.51673,52.15271 50.67795,-13.147243 -23.07713,40.748067 52.15272,19.51672 -52.15271,19.51674 23.07712,40.74807 -50.67795,-13.14725 -19.51672,52.15271 -19.516735,-52.15271 -50.677945,13.14726 23.07712,-40.74808 z"
       sodipodi:nodetypes="ccccccccccccccccc" />
    <path
       style="fill:#006400;fill-opacity:1;stroke:none;stroke-width:0.264583"
       d="m 107.20549,239.9317 -1e-5,-99.27026 70.19468,60.2648 -50.67795,-13.14725 -19.51672,52.15271"
       id="path6536" />
    <path
       style="fill:#006400;fill-opacity:1;stroke:none;stroke-width:0.264583"
       d="m 206.47575,140.66143 -98.53545,1e-5 46.38274,19.51673 z"
       id="path6540" />
    <path
       style="fill:#006400;fill-opacity:1;stroke:none;stroke-width:0.264583"
       d="m 177.40016,80.396643 -70.19468,60.264797 47.11755,-19.51673 z"
       id="path6542" />
    <path
       style="fill:#006400;fill-opacity:1;stroke:none;stroke-width:0.264583"
       d="m 37.01081,200.92625 70.19467,-60.26481 -19.516725,47.11755 z"
       id="path6544" />
    <path
       style="fill:#006400;fill-opacity:1;stroke:none;stroke-width:0.264583"
       d="m 107.20548,41.391175 0.73482,99.270265 18.78191,-47.117554 z"
       id="path6546" />
    <path
       style="fill:#006400;fill-opacity:1;stroke:none;stroke-width:0.264583"
       d="M 107.20548,140.66144 37.010803,80.39665 87.68875,93.543886 Z"
       id="path6548" />
    <path
       style="fill:#006400;fill-opacity:1;stroke:none;stroke-width:0.264583"
       d="M 107.9403,140.66144 H 7.9352187 L 60.087927,121.14471 Z"
       id="path6550" />
    <path
       id="path6604"
       style="fill:#ffffff;stroke-width:0.264583"
       d="M 156.84061,140.66144 A 49.635132,49.635132 0 0 0 107.20548,91.026306 49.635132,49.635132 0 0 0 57.570351,140.66144 49.635132,49.635132 0 0 0 107.20548,190.29657 49.635132,49.635132 0 0 0 156.84061,140.66144 Z" />
    <g
       aria-label="MUNICÍPIO DE VALPARAÍSO"
       transform="rotate(-170.48314,107.59611,140.66966)"
       id="text7492"
       style="font-size:9px;font-family:Arial;-inkscape-font-specification:Arial;fill:#006400;stroke-width:0.264583">
      <path
         d="m 149.63847,141.33676 6.41679,0.57369 -0.11427,1.27811 -4.67919,1.11264 q -0.65346,0.15336 -0.97722,0.22148 0.34038,0.14073 0.99809,0.43337 l 4.32725,1.93551 -0.10213,1.14242 -6.41679,-0.57369 0.0732,-0.81852 5.37066,0.48017 -5.20396,-2.3448 0.0685,-0.76599 5.62851,-1.36749 -5.46259,-0.48838 z"
         id="path8342" />
      <path
         d="m 153.96311,154.54967 -0.21731,0.82438 -3.59922,-0.94875 q -0.93911,-0.24755 -1.43553,-0.60564 -0.49641,-0.35808 -0.69812,-1.0066 -0.19858,-0.64315 0.0389,-1.54402 0.23075,-0.87537 0.6792,-1.35251 0.44844,-0.47714 1.08058,-0.56501 0.6364,-0.0867 1.6265,0.17425 l 3.59922,0.94875 -0.2173,0.82438 -3.59498,-0.94763 q -0.81163,-0.21395 -1.23752,-0.16715 -0.42277,0.0522 -0.72732,0.36272 -0.30568,0.31481 -0.44569,0.84598 -0.23971,0.90937 0.0705,1.40472 0.31025,0.49534 1.48308,0.8045 z"
         id="path8344" />
      <path
         d="m 147.05031,155.07296 5.89525,2.59813 -0.35268,0.80024 -5.99317,1.05655 4.62853,2.03987 -0.32964,0.74796 -5.89525,-2.59813 0.35268,-0.80024 5.9972,-1.05477 -4.63256,-2.04165 z"
         id="path8346" />
      <path
         d="m 144.18681,161.07476 5.5789,3.22181 -0.42635,0.73828 -5.5789,-3.22182 z"
         id="path8348" />
      <path
         d="m 142.14208,168.1795 -0.67724,0.56084 q -0.68928,-0.83659 -0.72348,-1.72746 -0.0333,-0.88473 0.56105,-1.69685 0.61506,-0.84049 1.3422,-1.11976 0.72809,-0.27313 1.5795,-0.0748 0.84882,0.20185 1.59356,0.74685 0.81212,0.5943 1.18922,1.34402 0.37805,0.75586 0.27231,1.55521 -0.1048,0.80548 -0.60827,1.49348 -0.57095,0.7802 -1.35742,1.0215 -0.78648,0.24129 -1.65951,-0.0763 l 0.3361,-0.79414 q 0.69977,0.23436 1.21039,0.0798 0.51062,-0.15455 0.89212,-0.67587 0.43859,-0.59934 0.44719,-1.21384 0.006,-0.61095 -0.36047,-1.12963 -0.36293,-0.51608 -0.87716,-0.89238 -0.66317,-0.48531 -1.2998,-0.65713 -0.63568,-0.16569 -1.17883,0.0631 -0.54315,0.22876 -0.89091,0.70398 -0.42302,0.57806 -0.38292,1.22275 0.0401,0.64469 0.59237,1.26665 z"
         id="path8350" />
      <path
         d="m 138.95372,168.37609 4.75989,4.34139 -0.57451,0.62989 -4.75989,-4.34139 z m 5.20018,4.44557 0.51526,1.26103 -0.69889,0.76625 -0.25762,-1.54349 z"
         id="path8352" />
      <path
         d="m 137.37678,170.1321 4.29494,4.80185 -1.81134,1.62012 q -0.47822,0.42774 -0.77145,0.60747 -0.40649,0.25745 -0.79501,0.30427 -0.3856,0.0501 -0.79632,-0.11907 -0.414,-0.16623 -0.73334,-0.52326 -0.54785,-0.61251 -0.53893,-1.38696 0.0118,-0.77117 1.03052,-1.68231 l 1.23158,-1.10157 -1.7461,-1.95218 z m 1.61749,3.0872 -1.2414,1.11036 q -0.61579,0.55078 -0.66948,1.01151 -0.0537,0.46073 0.31839,0.87672 0.26953,0.30134 0.61391,0.37655 0.34403,0.0814 0.65449,-0.0725 0.19859,-0.10098 0.63095,-0.4877 l 1.2283,-1.09864 z"
         id="path8354" />
      <path
         d="m 132.68208,174.09742 3.78505,5.21323 -0.68989,0.50088 -3.78504,-5.21323 z"
         id="path8356" />
      <path
         d="m 132.56647,178.13082 q 0.7884,1.39687 0.48326,2.6086 -0.30298,1.21556 -1.48937,1.88516 -0.77689,0.43848 -1.61022,0.41934 -0.83333,-0.0192 -1.53447,-0.50145 -0.7028,-0.47632 -1.178,-1.31827 -0.48168,-0.85344 -0.51741,-1.7214 -0.0357,-0.86796 0.39918,-1.57262 0.43706,-0.70083 1.16803,-1.11339 0.7922,-0.44712 1.63201,-0.4165 0.8398,0.0306 1.53496,0.51127 0.69515,0.48064 1.11203,1.21926 z m -0.77189,0.42052 q -0.5724,-1.01417 -1.44632,-1.29299 -0.87559,-0.27283 -1.69841,0.19157 -0.83812,0.47304 -1.04509,1.36696 -0.2108,0.89609 0.40048,1.97914 0.38664,0.68505 0.90737,1.06228 0.51906,0.38323 1.1245,0.40988 0.60378,0.0326 1.1587,-0.28056 0.78838,-0.44496 1.05189,-1.31024 0.26184,-0.85929 -0.45312,-2.12604 z"
         id="path8358" />
      <path
         d="m 122.30868,179.78696 1.8435,6.17299 -2.12644,0.63504 q -0.72004,0.21503 -1.12542,0.23978 -0.56702,0.0363 -1.03735,-0.17177 -0.61169,-0.26678 -1.0441,-0.83935 -0.43536,-0.56711 -0.68183,-1.39242 -0.21001,-0.7032 -0.208,-1.29543 0.002,-0.59223 0.15197,-1.02685 0.15122,-0.43042 0.39699,-0.72854 0.24282,-0.29266 0.64509,-0.52745 0.39806,-0.23354 0.95809,-0.40078 z m -0.59934,0.97242 -1.31797,0.39359 q -0.61056,0.18234 -0.92189,0.39915 -0.31554,0.21806 -0.46025,0.48601 -0.20378,0.37731 -0.21792,0.91354 -0.0171,0.54171 0.19165,1.24069 0.28923,0.96848 0.76392,1.39084 0.47174,0.42782 0.97932,0.46886 0.36616,0.0282 1.09463,-0.18931 l 1.29691,-0.38731 z"
         id="path8360" />
      <path
         d="m 116.02538,181.53025 0.89361,6.38011 -4.61317,0.64613 -0.10546,-0.75291 3.76888,-0.52787 -0.27369,-1.95407 -3.52951,0.49435 -0.10485,-0.74856 3.52952,-0.49435 -0.30417,-2.17167 -3.91685,0.5486 -0.10545,-0.7529 z"
         id="path8362" />
      <path
         d="m 105.73982,182.19451 2.13601,6.57056 -0.92144,-0.051 -1.41294,-4.76561 q -0.17073,-0.57281 -0.27954,-1.07178 -0.17834,0.51827 -0.40496,1.03387 l -1.99638,4.57678 -0.86879,-0.0481 2.87487,-6.29304 z"
         id="path8364" />
      <path
         d="m 102.94615,182.06511 -3.6542,5.85427 -0.901694,-0.17468 -1.363362,-6.82626 0.953466,0.18471 0.366669,2.05847 2.644681,0.51233 1.06569,-1.781 z m -2.32809,2.2437 -2.144222,-0.41538 0.32077,1.87949 q 0.147386,0.85666 0.194617,1.39848 0.238644,-0.58492 0.574846,-1.14199 z"
         id="path8366" />
      <path
         d="m 96.415591,180.67687 -2.054538,6.10599 -0.808024,-0.27188 1.812086,-5.38544 -3.007181,-1.01185 0.242452,-0.72056 z"
         id="path8368" />
      <path
         d="m 91.661004,178.99574 -2.800312,5.80194 -2.188591,-1.05632 q -0.57782,-0.27889 -0.855818,-0.48138 -0.393045,-0.27754 -0.584537,-0.61882 -0.193401,-0.33732 -0.193713,-0.78152 -0.0043,-0.44611 0.20394,-0.87749 0.357202,-0.74009 1.076487,-1.02727 0.717375,-0.28323 1.94821,0.31083 l 1.488084,0.71823 1.138462,-2.35877 z m -2.23671,2.67287 -1.499957,-0.72395 q -0.744042,-0.35911 -1.19041,-0.23298 -0.446368,0.12613 -0.688959,0.62876 -0.175736,0.3641 -0.113887,0.71113 0.05598,0.34907 0.316651,0.57736 0.169093,0.14505 0.691506,0.39719 l 1.484126,0.71631 z"
         id="path8370" />
      <path
         d="m 87.474011,177.00081 -5.624801,3.9984 -0.765143,-0.50806 1.36709,-6.82551 0.809075,0.53722 -0.453285,2.04115 2.244175,1.49014 1.668729,-1.2341 z m -3.011983,1.17564 -1.819503,-1.20815 -0.426809,1.85828 q -0.193445,0.84744 -0.358247,1.36575 0.445261,-0.44813 0.969864,-0.83303 z"
         id="path8372" />
      <path
         d="m 81.917366,173.20512 -4.324277,4.77545 -2.117355,-1.91731 q -0.638464,-0.57815 -0.852738,-1.00931 -0.217223,-0.42792 -0.120957,-0.9336 0.09627,-0.50567 0.45318,-0.89983 0.460155,-0.50816 1.104778,-0.55879 0.644624,-0.0506 1.417492,0.47729 -0.141686,-0.34765 -0.165795,-0.58291 -0.04681,-0.50481 0.05074,-1.11011 l 0.34628,-2.05191 0.794822,0.71973 -0.267713,1.56577 q -0.112476,0.68072 -0.139795,1.07097 -0.02732,0.39026 0.03342,0.61126 0.05748,0.21804 0.171619,0.38661 0.08685,0.12015 0.331159,0.34137 l 0.732931,0.66369 1.920261,-2.12061 z m -3.047763,2.09562 -1.358365,-1.23003 q -0.433243,-0.39231 -0.757196,-0.52558 -0.326902,-0.13002 -0.630926,-0.0496 -0.306974,0.0837 -0.516403,0.31494 -0.30677,0.33878 -0.256833,0.78121 0.04668,0.43948 0.577647,0.92028 l 1.511466,1.36867 z"
         id="path8374" />
      <path
         d="m 77.637695,169.30647 -6.553354,2.16313 -0.581432,-0.71099 3.317923,-6.11947 0.614816,0.75181 -1.034703,1.81691 1.705348,2.08533 1.958316,-0.6875 z m -3.224684,0.23577 -1.382639,-1.69072 -0.955508,1.64996 q -0.434603,0.75279 -0.744836,1.19951 0.557555,-0.29701 1.172292,-0.5102 z"
         id="path8376" />
      <path
         d="m 73.436107,163.8932 -5.375978,3.55009 -0.469794,-0.71142 5.375977,-3.55009 z m -5.584936,3.95139 -1.348865,0.19033 -0.571502,-0.86544 1.559546,0.12871 z"
         id="path8378" />
      <path
         d="m 70.419622,163.14925 -0.43461,-0.68029 q 0.402037,-0.27442 0.582989,-0.60194 0.175022,-0.32938 0.142981,-0.80842 -0.03594,-0.477 -0.290229,-0.96392 -0.225812,-0.43237 -0.527276,-0.69634 -0.301464,-0.26397 -0.606904,-0.30772 -0.31137,-0.0456 -0.57625,0.0927 -0.268776,0.14037 -0.386062,0.39993 -0.121182,0.2616 -0.07036,0.69117 0.03043,0.27661 0.254397,1.16111 0.220068,0.88653 0.217352,1.28953 -6.36e-4,0.52089 -0.210369,0.88823 -0.215663,0.36548 -0.609088,0.57094 -0.432379,0.22582 -0.934491,0.17571 -0.506008,-0.0481 -0.946928,-0.41769 -0.44092,-0.36961 -0.742003,-0.94612 -0.331598,-0.63493 -0.377406,-1.22577 -0.05174,-0.59269 0.209283,-1.06118 0.261019,-0.46849 0.753341,-0.7504 l 0.432922,0.69605 q -0.510932,0.3412 -0.61051,0.82453 -0.101613,0.47943 0.242191,1.13774 0.358045,0.68557 0.776021,0.86886 0.412046,0.18143 0.766519,-0.004 0.307728,-0.16071 0.390431,-0.4865 0.08474,-0.32188 -0.185022,-1.35103 -0.275688,-1.03101 -0.298898,-1.45517 -0.03057,-0.61862 0.199804,-1.04136 0.226482,-0.4207 0.686127,-0.66076 0.45575,-0.23801 0.997162,-0.1886 0.537517,0.0515 1.019771,0.42426 0.476325,0.37096 0.795717,0.98252 0.404834,0.77517 0.453543,1.41902 0.04667,0.63996 -0.248536,1.17589 -0.30114,0.53406 -0.865611,0.84869 z"
         id="path8380" />
      <path
         d="m 66.507815,157.8184 q -1.520511,0.51076 -2.652933,-0.0175 -1.136587,-0.52683 -1.570381,-1.81822 -0.284065,-0.84566 -0.108076,-1.66042 0.175989,-0.81476 0.781892,-1.41233 0.600338,-0.60035 1.516811,-0.9082 0.92897,-0.31205 1.788088,-0.18341 0.859119,0.12863 1.469096,0.68865 0.605811,0.56141 0.873084,1.35708 0.289662,0.86232 0.101176,1.68127 -0.188487,0.81896 -0.791624,1.41097 -0.603136,0.59201 -1.407133,0.86208 z m -0.26737,-0.83735 q 1.103933,-0.37083 1.542593,-1.17647 0.433094,-0.8084 0.132237,-1.70405 -0.306455,-0.9123 -1.145292,-1.28418 -0.840237,-0.37604 -2.019154,0.02 -0.745675,0.25048 -1.214365,0.6907 -0.474255,0.43746 -0.614635,1.02701 -0.145945,0.58678 0.05696,1.19082 0.288264,0.85815 1.088306,1.28015 0.794478,0.41923 2.173352,-0.0439 z"
         id="path8382" />
    </g>
    <path
       id="path8133"
       style="fill:#1e90ff;stroke-width:0.264583"
       d="m 147.80601,140.66144 a 40.600525,40.600525 0 0 1 -40.60053,40.60052 40.600525,40.600525 0 0 1 -40.600522,-40.60052 40.600525,40.600525 0 0 1 40.600522,-40.60053 40.600525,40.600525 0 0 1 40.60053,40.60053 z" />
    <path
       id="circle7384"
       style="fill:none;fill-opacity:1;stroke:none;stroke-width:0.271032;stroke-opacity:1"
       d="M 149.53036,140.66144 A 41.590065,41.590065 0 0 1 107.94029,182.2515 41.590065,41.590065 0 0 1 66.350236,140.66144 41.590065,41.590065 0 0 1 107.94029,99.071375 41.590065,41.590065 0 0 1 149.53036,140.66144 Z" />
    <g
       aria-label="DE GOIÁS"
       transform="rotate(118.49657,107.48963,140.05108)"
       id="text8191"
       style="font-size:8.99999px;font-family:Arial;-inkscape-font-specification:Arial;fill:#006400;stroke-width:0.264583">
      <path
         d="m 156.90106,139.96393 -6.42893,0.41596 -0.14329,-2.2146 q -0.0485,-0.7499 0.018,-1.15054 0.0914,-0.56078 0.39945,-0.97265 0.39686,-0.5365 1.05164,-0.82988 0.65012,-0.29748 1.50965,-0.35309 0.73235,-0.0474 1.30913,0.087 0.57678,0.13443 0.96684,0.37781 0.38568,0.24368 0.62127,0.5499 0.23093,0.30213 0.36979,0.74673 0.13858,0.44021 0.17631,1.02346 z m -0.81371,-0.80167 -0.0888,-1.37262 q -0.0411,-0.63588 -0.18282,-0.98782 -0.14195,-0.35632 -0.37074,-0.5573 -0.32216,-0.28301 -0.84165,-0.41674 -0.52415,-0.13783 -1.25212,-0.0907 -1.00863,0.0653 -1.52647,0.43345 -0.5225,0.36408 -0.67604,0.84962 -0.10943,0.35057 -0.0603,1.10923 l 0.0874,1.35069 z"
         id="path8385" />
      <path
         d="m 156.3764,133.46545 -6.32602,1.21885 -0.8813,-4.57407 0.74652,-0.14383 0.72001,3.73693 1.9375,-0.37331 -0.67427,-3.49959 0.7422,-0.14301 0.67428,3.4996 2.15327,-0.41488 -0.74828,-3.88364 0.74653,-0.14384 z"
         id="path8387" />
      <path
         d="m 151.01575,123.30796 -0.70389,0.27542 -0.99848,-2.53979 2.22628,-0.87108 q 0.69551,0.40267 1.17626,0.93184 0.47666,0.53078 0.73286,1.18556 0.34587,0.88396 0.2528,1.75563 -0.0988,0.86919 -0.67084,1.51772 -0.57206,0.64854 -1.45602,0.99441 -0.87577,0.34267 -1.77538,0.27468 -0.9053,-0.0705 -1.54263,-0.6139 -0.63733,-0.54341 -0.988,-1.43965 -0.2546,-0.65069 -0.24676,-1.25778 0.002,-0.60959 0.26176,-1.05565 0.25961,-0.44606 0.80444,-0.83856 l 0.47666,0.63931 q -0.40551,0.31439 -0.58897,0.6174 -0.18345,0.30301 -0.19325,0.73627 -0.0139,0.43486 0.16385,0.88911 0.21297,0.54429 0.53608,0.87561 0.31902,0.33291 0.6852,0.47277 0.36457,0.13577 0.74071,0.14432 0.64624,0.0114 1.29693,-0.24319 0.80212,-0.31385 1.23503,-0.79941 0.43131,-0.48965 0.48667,-1.12005 0.0553,-0.6304 -0.17684,-1.2238 -0.20175,-0.51565 -0.59034,-0.92988 -0.39268,-0.41262 -0.71704,-0.57828 l -1.11723,0.43714 z"
         id="path8389" />
      <path
         d="m 149.21847,120.47738 q -1.39625,0.78949 -2.60822,0.4853 -1.2158,-0.30203 -1.88632,-1.48789 -0.43909,-0.77654 -0.4206,-1.60989 0.0185,-0.83334 0.50025,-1.53485 0.47577,-0.70318 1.31734,-1.17904 0.85306,-0.48235 1.72099,-0.51875 0.86793,-0.0364 1.57293,0.39794 0.70118,0.43652 1.11431,1.16716 0.44774,0.79185 0.41777,1.63168 -0.03,0.83983 -0.51006,1.53536 -0.4801,0.69552 -1.21839,1.11298 z m -0.42112,-0.77156 q 1.01372,-0.57319 1.29185,-1.44733 0.27215,-0.8758 -0.1929,-1.69825 -0.47369,-0.83775 -1.36778,-1.04403 -0.89625,-0.2101 -1.97882,0.40203 -0.68474,0.38718 -1.06157,0.9082 -0.38282,0.51937 -0.409,1.12483 -0.0322,0.6038 0.28147,1.15848 0.44557,0.78802 1.31106,1.05085 0.8595,0.26117 2.12569,-0.45478 z"
         id="path8391" />
      <path
         d="m 148.14403,112.58454 -5.27937,3.69221 -0.4886,-0.69864 5.27937,-3.69221 z"
         id="path8393" />
      <path
         d="m 147.25811,111.18605 -6.53113,2.22929 -0.58859,-0.70507 3.25586,-6.15271 0.62238,0.74555 -1.01627,1.82728 1.72635,2.06798 1.95126,-0.70727 z m -3.22213,0.26836 -1.39966,-1.67664 -0.93877,1.65954 q -0.42697,0.75714 -0.73267,1.20698 0.55452,-0.30263 1.16707,-0.52204 z m -3.55911,2.27849 -1.31915,0.33986 -0.66463,-0.79615 1.56416,-0.0464 z"
         id="path8395" />
      <path
         d="m 141.68485,107.79287 -0.63388,-0.49987 q 0.28964,-0.39121 0.35303,-0.75999 0.0572,-0.36858 -0.13039,-0.81054 -0.19056,-0.43876 -0.59063,-0.81518 -0.35526,-0.33427 -0.72668,-0.48462 -0.37142,-0.15035 -0.67429,-0.0914 -0.30908,0.0592 -0.51386,0.27679 -0.20778,0.22083 -0.23334,0.50452 -0.0286,0.28688 0.16048,0.67595 0.11957,0.25128 0.62153,1.01321 0.49895,0.76512 0.62871,1.14667 0.17043,0.49222 0.0929,0.90806 -0.0837,0.41602 -0.38785,0.73927 -0.33426,0.35526 -0.82499,0.4728 -0.49374,0.12073 -1.03157,-0.0836 -0.53784,-0.20434 -1.01152,-0.65003 -0.52168,-0.49085 -0.75895,-1.03389 -0.24347,-0.54285 -0.15075,-1.07107 0.0927,-0.52822 0.46519,-0.95615 l 0.63746,0.51531 q -0.37057,0.49005 -0.30593,0.97928 0.0614,0.48621 0.60233,0.99514 0.56329,0.53 1.01827,0.56589 0.44878,0.0361 0.72281,-0.25518 0.2379,-0.25284 0.20905,-0.58772 -0.0257,-0.33186 -0.61836,-1.21537 -0.59893,-0.88333 -0.76012,-1.27635 -0.232,-0.57429 -0.1532,-1.04924 0.0758,-0.47174 0.43114,-0.8494 0.35233,-0.37446 0.87995,-0.50556 0.52461,-0.12789 1.10254,0.0659 0.57171,0.19399 1.0742,0.66678 0.6369,0.59926 0.89432,1.19143 0.25421,0.58916 0.15133,1.1923 -0.10909,0.60332 -0.53896,1.08585 z"
         id="path8397" />
    </g>
    <g
       id="g8327"
       transform="matrix(0.51943182,0,0,0.51943182,-232.51918,57.423611)">
      <path
         style="fill:#ffffff;fill-opacity:1;stroke:#000000;stroke-width:0.264583;stroke-opacity:1"
         d="m 588.83004,127.57741 h 16.80086 l 42.23266,74.37827 42.9423,-74.37827 h 28.43082 v -9.17137 h -35.2018 l -16.67161,28.87609 c -12.57705,-7.28139 -25.15409,-7.80063 -37.73114,0 L 613.93246,118.40604 H 589.1129 Z"
         id="path8315"
         sodipodi:nodetypes="cccccccccccc" />
      <path
         style="fill:#ffd700;fill-opacity:1;stroke:#000000;stroke-width:0.264583;stroke-opacity:1"
         d="m 647.86356,186.96857 17.43162,-30.1925 c -10.7424,-7.25555 -21.96078,-9.9997 -34.52376,0 z"
         id="path8323"
         sodipodi:nodetypes="cccc" />
    </g>
  </g>
</svg>
